<svg xmlns="http://www.w3.org/2000/svg" xml:space="preserve" width="512" height="512" viewBox="0 0 512 512"><defs><filter id="xvuwjlj5wh__a" width="1.58653" height="1.44771" x="-.29326" y="-.22386" style="color-interpolation-filters:sRGB"><feGaussianBlur stdDeviation=".32764"/></filter></defs><g style="display:inline"><g style="display:inline;opacity:.902"><path d="M1.74167 3.45545h.24912v.34796h-.24912Zm-.27349-.06283h.34096v.7357h-.34096Zm.00501-.24844h.7782v.44764h-.7782Zm.73186-1.6744h.75623v.66812h-.75623Zm1.04457.72383h.21508v.27858h-.21508Zm-1.7351.7692h.91273v.21577h-.91274V2.9628Zm.52932-1.10958H3.3739v.6157H2.04384Zm.0852-.71299h.41988v1.67347h-.41987V1.14024Zm1.36427 1.3949h.65619v.36269h-.6562v-.3627ZM1.7866.88502h.40642v1.79782H1.7866Zm-.30884 1.40355h2.28939v.71821H1.47776ZM1.50694.61564h.37543v1.72502h-.37543Z" style="mix-blend-mode:normal;fill:#333;fill-opacity:1;stroke-width:.00957;filter:url(#xvuwjlj5wh__a)" transform="translate(-8.36814 32.74916) scale(94.12)"/><path d="M1.74167 3.45545h.24912v.34796h-.24912Zm-.27349-.06283h.34096v.7357h-.34096Zm.00501-.24844h.7782v.44764h-.7782Zm.73186-1.6744h.75623v.66812h-.75623Zm1.04457.72383h.21508v.27858h-.21508Zm-1.7351.7692h.91273v.21577h-.91274V2.9628Zm.52932-1.10958H3.3739v.6157H2.04384Zm.0852-.71299h.41988v1.67347h-.41987V1.14024Zm1.36427 1.3949h.65619v.36269h-.6562v-.3627ZM1.7866.88502h.40642v1.79782H1.7866Zm-.30884 1.40355h2.28939v.71821H1.47776ZM1.50694.61564h.37543v1.72502h-.37543Z" style="fill:#333;fill-opacity:1;stroke-width:.00957" transform="translate(-8.36814 32.74916) scale(94.12)"/></g><path d="M.587 249.924V.171c126.098 107.537 251.568 215.885 375.352 326.29-76.082-.218-152.163.31-228.243.8C98.652 388.351 49.546 449.39.542 510.516l.045-260.593Zm128.675 44.18c52.082-.038 104.163.065 156.245-.023-85.04-74.29-166.747-152.664-253.49-224.855-.035 118.225-.996 241.804-.578 360.028 33.042-42.783 65.905-91.456 97.823-135.15Z" style="display:inline;fill:#d5d5d5;fill-opacity:1;stroke-width:2.33777" transform="translate(113.98767 34.91405) scale(.90078)"/></g><path d="M-4.67356 7.27128h.00233v.0048h-.00233z" style="display:inline;fill:#f33;fill-opacity:1;fill-rule:nonzero;stroke:#d5d5d5;stroke-width:.000539573;stroke-dasharray:none;stroke-opacity:1;paint-order:stroke fill markers" transform="matrix(-94.12565 0 0 94.12565 -325.65252 -648.64993)"/></svg>